HIERARCHY
ROOT root
{
	OFFSET 0.000000 0.000000 0.000000
	CHANNELS 6 Xposition Yposition Zposition Zrotation Yrotation Xrotation
	JOINT lhip
	{
		OFFSET 0.058581 -0.082280 -0.017664
		CHANNELS 3 Zrotation Yrotation Xrotation
		JOINT lknee
		{
			OFFSET 0.043451 -0.386469 0.008037
			CHANNELS 3 Zrotation Yrotation Xrotation
			JOINT lankle
			{
				OFFSET -0.014790 -0.426874 -0.037428
				CHANNELS 3 Zrotation Yrotation Xrotation
				JOINT ltoe
				{
					OFFSET 0.041054 -0.060286 0.122042
					CHANNELS 3 Zrotation Yrotation Xrotation
					End Site
					{
						OFFSET 0.000000 0.000000 0.000000
					}
				}
			}
		}
	}
	JOINT rhip
	{
		OFFSET -0.060310 -0.090513 -0.013543
		CHANNELS 3 Zrotation Yrotation Xrotation
		JOINT rknee
		{
			OFFSET -0.043257 -0.383688 -0.004843
			CHANNELS 3 Zrotation Yrotation Xrotation
			JOINT rankle
			{
				OFFSET 0.019056 -0.420046 -0.034562
				CHANNELS 3 Zrotation Yrotation Xrotation
				JOINT rtoe
				{
					OFFSET -0.034840 -0.062106 0.130323
					CHANNELS 3 Zrotation Yrotation Xrotation
					End Site
					{
						OFFSET 0.000000 0.000000 0.000000
					}
				}
			}
		}
	}
	JOINT lowerback
	{
		OFFSET 0.004439 0.124404 -0.038385
		CHANNELS 3 Zrotation Yrotation Xrotation
		JOINT upperback
		{
			OFFSET 0.004488 0.137956 0.026820
			CHANNELS 3 Zrotation Yrotation Xrotation
			JOINT chest
			{
				OFFSET -0.002265 0.056032 0.002855
				CHANNELS 3 Zrotation Yrotation Xrotation
				JOINT lowerneck
				{
					OFFSET -0.013390 0.211636 -0.033468
					CHANNELS 3 Zrotation Yrotation Xrotation
					JOINT upperneck
					{
						OFFSET 0.010113 0.088937 0.050410
						CHANNELS 3 Zrotation Yrotation Xrotation
						End Site
						{
							OFFSET 0.000000 0.000000 0.000000
						}
					}
				}
				JOINT lclavicle
				{
					OFFSET 0.071702 0.114000 -0.018898
					CHANNELS 3 Zrotation Yrotation Xrotation
					JOINT lshoulder
					{
						OFFSET 0.122921 0.045205 -0.019046
						CHANNELS 3 Zrotation Yrotation Xrotation
						JOINT lelbow
						{
							OFFSET 0.255332 -0.015649 -0.022946
							CHANNELS 3 Zrotation Yrotation Xrotation
							JOINT lwrist
							{
								OFFSET 0.265709 0.012698 -0.007375
								CHANNELS 3 Zrotation Yrotation Xrotation
								End Site
								{
									OFFSET 0.000000 0.000000 0.000000
								}
							}
						}
					}
				}
				JOINT rclavicle
				{
					OFFSET -0.082954 0.112472 -0.023707
					CHANNELS 3 Zrotation Yrotation Xrotation
					JOINT rshoulder
					{
						OFFSET -0.113228 0.046853 -0.008472
						CHANNELS 3 Zrotation Yrotation Xrotation
						JOINT relbow
						{
							OFFSET -0.260127 -0.014369 -0.031269
							CHANNELS 3 Zrotation Yrotation Xrotation
							JOINT rwrist
							{
								OFFSET -0.269108 0.006794 -0.006027
								CHANNELS 3 Zrotation Yrotation Xrotation
								End Site
								{
									OFFSET 0.000000 0.000000 0.000000
								}
							}
						}
					}
				}
			}
		}
	}
}
MOTION
Frames: 12
Frame Time: 0.033333
2.333737 0.687545 0.990415 -96.713035 -0.713487 85.150679 -2.546593 1.086845 4.089165 0.982335 -4.560187 3.267623 3.608027 13.576635 -11.858964 0.000000 -0.000000 0.000000 1.524092 -0.913267 2.293855 -3.446167 2.056504 3.828320 0.756112 -9.252620 -10.742437 0.000000 -0.000000 0.000000 -2.198134 2.414828 7.895867 -1.038933 -2.598190 7.119511 -1.354904 -0.220222 -1.669617 1.509292 -0.289418 1.990181 5.404109 -0.281483 8.484433 -25.788834 -5.188248 -1.315482 -52.872265 -10.224100 17.989420 4.464809 -20.440744 13.260764 -13.734206 -1.415970 9.027184 24.035585 7.353486 1.296102 60.033250 2.878905 20.491829 -2.743100 27.407920 8.395800 12.014348 4.099871 -1.795885 
2.336533 0.687645 0.987913 -95.337027 -0.019340 86.029673 -1.837149 0.113678 2.118451 0.900329 -4.609483 4.436730 3.486694 13.084707 -12.076988 0.000000 -0.000000 0.000000 2.355267 -1.143663 1.057278 -3.586536 1.417300 4.034090 0.817057 -9.572047 -10.714248 0.000000 -0.000000 0.000000 -1.709690 2.002785 8.056815 -0.738629 -2.748259 5.552272 -1.544091 0.402307 -1.223826 2.448548 -0.708707 0.525172 4.698251 0.261418 11.776061 -26.874831 -5.904580 -0.056556 -52.158787 -9.729142 16.772894 0.569943 -21.305266 8.087251 -8.721422 -3.031162 3.104693 23.544242 6.866396 1.175052 60.046412 2.553003 21.067940 -2.162167 27.945480 8.214449 9.198410 4.404830 -2.484184 
2.337950 0.688287 0.987349 -94.440998 -0.062799 86.015096 -1.822871 -0.152588 1.678530 0.688338 -5.015633 4.880285 3.277105 12.825793 -11.940669 0.000000 -0.000000 0.000000 2.587531 -1.062553 0.705918 -4.058115 0.858530 4.731542 0.787065 -9.967912 -11.035616 0.000000 -0.000000 0.000000 -1.868575 2.162158 8.211822 -0.726950 -2.663283 5.241017 -1.479608 0.496437 -0.997173 2.486480 -0.848260 1.006361 4.834815 0.075780 11.658314 -26.422579 -5.888600 -0.154262 -53.023482 -9.747205 17.101584 0.753016 -21.565231 8.200758 -8.458714 -3.613858 3.141435 23.486742 6.889662 1.267629 60.220947 2.615602 21.005662 -2.466452 28.006378 8.228793 8.475254 4.648379 -2.066712 
2.338577 0.688550 0.987416 -93.447686 -0.119539 85.630092 -1.925719 -0.186202 2.148688 0.814430 -5.631351 4.469650 3.165278 12.512633 -11.673372 0.000000 -0.000000 0.000000 2.441399 -1.479154 1.227981 -3.988887 0.433944 4.656522 0.764225 -10.147570 -11.174785 0.000000 -0.000000 0.000000 -1.689074 2.504200 8.425385 -0.883560 -2.481720 5.202062 -1.524121 0.471344 -0.676322 2.354540 -0.922776 1.495968 4.758613 -0.010867 11.452167 -26.423518 -6.077574 -0.006725 -53.198805 -9.810287 17.408386 0.571174 -21.912228 8.816096 -7.729894 -3.710116 3.348407 23.476233 7.026599 1.309964 60.220633 2.764562 20.984083 -2.310568 28.332084 8.303642 7.413478 3.937471 -2.000832 
2.339745 0.688604 0.987580 -92.694948 -0.185236 85.647544 -1.945160 -0.465453 1.842128 0.664897 -5.908010 4.728037 3.235044 12.299597 -11.644525 0.000000 -0.000000 0.000000 2.319543 -1.604629 1.201495 -3.942525 0.071534 4.655763 0.700970 -10.325909 -11.017850 0.000000 -0.000000 0.000000 -1.681489 2.610963 8.227362 -0.941259 -2.590768 5.623556 -1.603889 0.591611 -0.870863 2.401308 -0.714881 1.470488 4.687815 -0.011693 11.761012 -26.440065 -6.152050 0.017834 -53.135717 -10.012119 17.441475 0.366819 -21.910689 8.845352 -7.932051 -3.863036 3.664854 23.638255 7.226162 1.403659 60.165786 2.911992 20.942652 -2.425483 28.324389 8.165670 7.261694 4.157804 -1.688244 
2.339878 0.688779 0.987621 -91.848967 -0.156149 85.500164 -1.863747 -0.694525 1.858996 0.571343 -6.186181 4.841573 3.000276 11.895380 -11.555562 0.000000 -0.000000 0.000000 2.368431 -1.903336 1.469338 -4.023290 -0.409299 4.608392 0.679776 -10.535079 -11.081825 0.000000 -0.000000 0.000000 -1.547313 2.838040 8.280281 -0.945007 -2.421941 5.619268 -1.579468 0.506378 -0.867699 2.176562 -0.381741 1.655467 4.536255 0.008036 11.708874 -26.648325 -6.402363 0.145586 -53.049888 -10.009150 17.459617 0.183372 -21.882007 9.180670 -7.585682 -4.093045 4.021943 23.649073 7.389929 1.495593 60.112109 2.946075 20.820938 -2.420189 28.217420 8.448545 6.846852 4.446562 -1.196362 
2.341009 0.689034 0.987807 -90.859537 -0.147094 85.663024 -1.812389 -1.044677 1.387325 0.490489 -6.568067 5.057770 3.005813 11.681103 -11.544515 0.000000 -0.000000 0.000000 2.437077 -2.064506 1.219308 -4.093936 -0.702340 4.766309 0.627950 -10.774573 -11.210604 0.000000 -0.000000 0.000000 -1.475626 2.907412 8.334604 -0.942263 -2.421356 5.347460 -1.542672 0.523436 -1.015950 2.152126 0.088734 1.909927 4.287053 0.597111 11.761500 -26.682402 -6.338214 -0.025134 -53.100449 -9.797788 17.848366 0.194525 -22.045732 9.749095 -6.585778 -3.980388 4.313471 23.738442 7.419946 1.639103 59.929664 3.118971 20.985205 -2.214599 28.026457 8.710276 6.481200 4.312239 -0.939410 
2.342718 0.689606 0.987773 -90.458326 -0.364588 85.475594 -1.970276 -0.926470 1.416386 0.352207 -6.963581 5.026322 3.021804 11.603750 -11.421553 0.000000 -0.000000 0.000000 2.258704 -1.780507 1.153681 -4.181595 -1.167561 5.192771 0.515324 -11.105916 -11.377324 0.000000 -0.000000 0.000000 -1.422170 3.031007 8.991084 -1.118554 -2.135028 4.870020 -1.529027 0.621015 -1.029153 2.090592 1.456200 1.889664 4.430295 2.055486 11.501189 -26.636757 -6.365453 -0.060508 -53.044425 -9.697322 17.762364 0.263312 -22.332411 9.837558 -6.251135 -4.163762 4.303979 23.866174 7.769774 1.937919 59.806476 3.501442 21.021503 -2.111686 28.110165 8.846923 6.014573 4.008183 -0.629192 
2.343167 0.690101 0.987922 -89.497925 -0.430673 85.380733 -2.107584 -1.167146 1.481822 0.437510 -7.465315 4.889307 2.915340 11.434454 -11.179679 0.000000 -0.000000 0.000000 2.148100 -2.104474 1.254920 -4.115129 -1.444235 5.359551 0.503141 -11.361943 -11.549941 0.000000 -0.000000 0.000000 -1.363398 3.170884 8.894437 -1.102232 -2.174277 5.229166 -1.359442 0.629422 -1.204312 2.372735 3.661049 1.535833 4.276577 4.752033 11.198715 -26.755994 -6.595284 -0.023331 -52.902908 -9.496174 17.586546 0.158001 -22.645817 9.742394 -5.952159 -3.846008 4.019168 23.674888 7.955600 2.273463 59.508018 3.896287 20.974537 -1.576915 28.206609 8.757572 5.767266 3.857182 -0.662724 
2.343625 0.690342 0.987966 -88.530226 -0.523550 85.613347 -2.113867 -1.414955 1.074121 0.245692 -7.940157 4.881597 2.996006 11.335063 -11.019042 0.000000 -0.000000 0.000000 2.015281 -2.390000 1.031205 -4.102588 -1.845470 5.383647 0.605753 -11.585031 -11.685241 0.000000 -0.000000 0.000000 -1.187267 3.357173 8.692140 -1.202806 -2.049804 5.071394 -1.073711 0.647762 -1.330165 2.798307 8.231265 1.255293 4.355473 9.756360 10.870459 -26.865866 -6.877555 0.030410 -52.711563 -9.126987 17.325733 -0.081607 -22.793476 10.532096 -5.353161 -3.827437 3.937971 23.498561 7.791426 2.913589 59.549181 4.396845 20.893789 -1.514508 28.307520 8.990232 5.304980 3.806533 -0.367329 
2.343998 0.690430 0.988608 -87.920679 -0.683496 85.450903 -2.279423 -1.553982 1.299458 0.250828 -8.334000 4.598808 3.057019 11.285931 -10.846815 0.000000 -0.000000 0.000000 1.798120 -2.542143 1.163520 -4.089231 -2.195167 5.524959 0.723137 -11.727539 -11.787562 0.000000 -0.000000 0.000000 -1.063996 3.652521 8.823466 -1.344397 -1.975354 5.298025 -0.812130 0.712949 -1.646351 2.864573 12.756982 0.718201 4.309740 14.176479 10.571850 -26.641947 -7.348602 -0.053377 -52.702986 -8.814088 16.924026 -0.130004 -22.702853 10.632707 -5.720880 -3.670470 3.862700 23.525667 7.862417 3.569265 59.554806 4.722064 20.587907 -1.832155 28.296170 8.701244 5.810399 3.721615 -0.028215 
2.344860 0.690416 0.988705 -87.290010 -0.875917 85.359394 -2.505205 -1.695723 1.441985 0.254214 -8.735382 4.191139 3.094354 11.336983 -10.335981 0.000000 -0.000000 0.000000 1.581433 -2.371589 1.194693 -4.077744 -2.611121 5.691989 0.698876 -11.882648 -12.020007 0.000000 -0.000000 0.000000 -0.692258 3.845648 9.292427 -1.670011 -1.708142 5.029559 -0.627102 0.782877 -1.815497 2.729433 17.150668 0.350837 4.241491 18.646531 10.196873 -26.891057 -7.960562 0.274594 -52.341172 -8.618215 16.319654 0.046684 -22.830628 10.860173 -5.895970 -3.944032 3.621648 23.448345 8.105970 4.432185 59.603357 4.934395 20.252130 -2.127839 28.444397 8.578440 5.786730 3.788009 -0.147855 
